# xmcd
#
# Track frame offsets: 
#        150
#        14820
#        28552
#        42457
#        56822
#        68350
#        80455
#        93045
#        103575
#        116920
#        130207
#        143527
#        157355
#        171535
#        186787
#        198552
#        211672
#        224997
#        238375
#        250350
#        262187
#        274840
#        286170
#        299755
#
# Disc length: 4165 seconds
#
# Revision: 2
# Processed by: cddbd v1.5.2PL0 Copyright (c) Steve Scherf et al.
# Submitted via: ExactAudioCopyFreeDBPlugin 1.0
#
DISCID=89104318
DTITLE=St. Louis Jimmy Oden - Complete Recorded Works Vol. 2 (1944-195
DTITLE=5)
DYEAR=1994
DGENRE=Blues
TTITLE0=Bad Condition
TTITLE1=Dog House Blues
TTITLE2=Yancey's Blues
TTITLE3=Going Down Slow
TTITLE4=My Trouble
TTITLE5=Sittin' an' Thinkin'
TTITLE6=Now I'm Through
TTITLE7=Mr. Brown Boogie
TTITLE8=Bisquit Roller
TTITLE9=I'm Sorry Now
TTITLE10=Florida Hurricane
TTITLE11=So Nice and Kind
TTITLE12=Shame on You, Baby
TTITLE13=I'll Never Be Satisfied
TTITLE14=Jack L. Cooper
TTITLE15=Hard Work Boogie (Hard Luck Boogie)
TTITLE16=Your Evil Ways
TTITLE17=I Sit Up All Night
TTITLE18=State Street Blues
TTITLE19=Tryin' to Change My Ways (Good Book Blues)
TTITLE20=Drinkin' Woman
TTITLE21=Why Work
TTITLE22=Goin' Down Slow
TTITLE23=Murder in the First Degree
EXTD=Complete Recorded Works 1932-1955 in Chronological Order\nThis is
EXTD=Volume 2 - 14 December 1944-1955\nDocument Records - DOCD-5235, 
EXTD=Vienna, Austria
EXTT0=
EXTT1=
EXTT2=
EXTT3=
EXTT4=
EXTT5=
EXTT6=
EXTT7=
EXTT8=
EXTT9=
EXTT10=
EXTT11=
EXTT12=
EXTT13=
EXTT14=
EXTT15=
EXTT16=
EXTT17=
EXTT18=
EXTT19=
EXTT20=
EXTT21=
EXTT22=
EXTT23=
PLAYORDER=
